<svg xmlns="http://www.w3.org/2000/svg" viewBox="0 0 32 32" width="32" height="32">
  <rect width="32" height="32" rx="6" fill="#0A0A0A"/>
  <!-- Row 1 -->
  <rect x="4" y="4" width="3" height="3" rx="0.5" fill="#ffffff" opacity="0.9"/>
  <rect x="9" y="4" width="3" height="3" rx="0.5" fill="#ffffff" opacity="0.4"/>
  <rect x="14.5" y="4" width="3" height="3" rx="0.5" fill="#ffffff" opacity="0.7"/>
  <rect x="20" y="4" width="3" height="3" rx="0.5" fill="#ffffff" opacity="0.3"/>
  <rect x="25" y="4" width="3" height="3" rx="0.5" fill="#ffffff" opacity="0.8"/>
  <!-- Row 2 -->
  <rect x="4" y="9" width="3" height="3" rx="0.5" fill="#ffffff" opacity="0.3"/>
  <rect x="9" y="9" width="3" height="3" rx="0.5" fill="#ffffff" opacity="0.8"/>
  <rect x="14.5" y="9" width="3" height="3" rx="0.5" fill="#ffffff" opacity="0.5"/>
  <rect x="20" y="9" width="3" height="3" rx="0.5" fill="#ffffff" opacity="0.9"/>
  <rect x="25" y="9" width="3" height="3" rx="0.5" fill="#ffffff" opacity="0.2"/>
  <!-- Row 3 -->
  <rect x="4" y="14.5" width="3" height="3" rx="0.5" fill="#ffffff" opacity="0.6"/>
  <rect x="9" y="14.5" width="3" height="3" rx="0.5" fill="#ffffff" opacity="0.2"/>
  <rect x="14.5" y="14.5" width="3" height="3" rx="0.5" fill="#ffffff" opacity="1"/>
  <rect x="20" y="14.5" width="3" height="3" rx="0.5" fill="#ffffff" opacity="0.4"/>
  <rect x="25" y="14.5" width="3" height="3" rx="0.5" fill="#ffffff" opacity="0.7"/>
  <!-- Row 4 -->
  <rect x="4" y="20" width="3" height="3" rx="0.5" fill="#ffffff" opacity="0.8"/>
  <rect x="9" y="20" width="3" height="3" rx="0.5" fill="#ffffff" opacity="0.5"/>
  <rect x="14.5" y="20" width="3" height="3" rx="0.5" fill="#ffffff" opacity="0.3"/>
  <rect x="20" y="20" width="3" height="3" rx="0.5" fill="#ffffff" opacity="0.7"/>
  <rect x="25" y="20" width="3" height="3" rx="0.5" fill="#ffffff" opacity="0.9"/>
  <!-- Row 5 -->
  <rect x="4" y="25" width="3" height="3" rx="0.5" fill="#ffffff" opacity="0.5"/>
  <rect x="9" y="25" width="3" height="3" rx="0.5" fill="#ffffff" opacity="0.9"/>
  <rect x="14.5" y="25" width="3" height="3" rx="0.5" fill="#ffffff" opacity="0.6"/>
  <rect x="20" y="25" width="3" height="3" rx="0.5" fill="#ffffff" opacity="0.2"/>
  <rect x="25" y="25" width="3" height="3" rx="0.5" fill="#ffffff" opacity="0.8"/>
</svg>
